<svg version="1.1" id="Layer_1" xmlns="http://www.w3.org/2000/svg" xmlns:xlink="http://www.w3.org/1999/xlink" x="0px" y="0px"
	 width="100%" viewBox="0 0 960 960" enable-background="new 0 0 960 960" xml:space="preserve">
<path fill="#000000" opacity="1.000000" stroke="none" 
	d="
M259.000000,961.000000 
	C173.023605,961.000000 87.047203,961.000000 1.035400,961.000000 
	C1.035400,641.111389 1.035400,321.222839 1.035400,1.000000 
	C111.358009,1.000000 221.716354,1.000000 332.757477,1.430502 
	C333.293488,3.657829 333.022949,5.454368 333.018799,7.251521 
	C332.966766,29.790958 332.953339,52.330482 332.468567,74.923721 
	C307.752777,74.977448 283.498352,74.977448 258.885498,74.977448 
	C258.885498,99.976189 258.885498,124.246254 258.885498,149.059799 
	C234.137650,149.059799 209.748657,149.059799 184.819977,149.059799 
	C184.819977,198.325089 184.819977,247.044891 184.819977,296.133240 
	C160.339630,296.133240 136.404083,296.133240 111.923904,296.133240 
	C111.923904,345.623688 111.923904,394.741821 111.463020,443.915497 
	C86.754051,443.971069 62.505966,443.971069 38.274353,443.971069 
	C38.274353,518.684509 38.274353,592.604065 38.274353,667.116089 
	C62.924198,667.116089 87.305481,667.116089 112.091614,667.116089 
	C112.091614,716.297241 112.091614,764.887024 112.091614,814.070312 
	C136.546463,814.070312 160.594543,814.070312 185.221313,814.070312 
	C185.221313,839.043335 185.221313,863.425842 185.221313,888.206421 
	C210.069931,888.206421 234.331589,888.206421 259.000000,888.206421 
	C259.000000,912.743286 259.000000,936.871643 259.000000,961.000000 
z"/>
<path fill="#000000" opacity="1.000000" stroke="none" 
	d="
M629.000000,1.000000 
	C739.636353,1.000000 850.272644,1.000000 960.954468,1.000000 
	C960.954468,320.881897 960.954468,640.763855 960.954468,961.000000 
	C875.308777,961.000000 789.617004,961.000000 703.462646,960.531372 
	C703.000061,936.147034 703.000061,912.231445 703.000061,887.793213 
	C728.022522,887.793213 752.401428,887.793213 777.124023,887.793213 
	C777.124023,863.007874 777.124023,838.748718 777.124023,813.962830 
	C801.515869,813.962830 825.561401,813.962830 850.052490,813.962830 
	C850.052490,764.667419 850.052490,715.902039 850.514771,667.080933 
	C875.218994,667.025208 899.460938,667.025208 923.853577,667.025208 
	C923.853577,641.546387 923.853577,616.759460 923.915894,591.509216 
	C923.978271,542.137634 923.978271,493.229340 923.978271,443.865204 
	C898.961731,443.865204 874.506714,443.865204 850.029053,443.405457 
	C850.006531,394.064301 850.006531,345.182861 850.006531,295.834534 
	C825.359741,295.834534 801.314270,295.834534 776.834351,295.834534 
	C776.834351,246.675415 776.834351,197.983932 776.834351,148.873306 
	C751.947205,148.873306 727.500793,148.873306 703.030945,148.413132 
	C703.007446,123.707687 703.007446,99.462425 703.007446,74.741264 
	C677.933411,74.741264 653.544067,74.741264 629.000000,74.741264 
	C629.000000,49.839813 629.000000,25.419907 629.000000,1.000000 
z"/>
<path fill="#967B60" opacity="1.000000" stroke="none" 
	d="
M259.468658,961.000000 
	C259.000000,936.871643 259.000000,912.743286 259.000000,888.206421 
	C234.331589,888.206421 210.069931,888.206421 185.221313,888.206421 
	C185.221313,863.425842 185.221313,839.043335 185.221313,814.070312 
	C160.594543,814.070312 136.546463,814.070312 112.091614,814.070312 
	C112.091614,764.887024 112.091614,716.297241 112.091614,667.116089 
	C87.305481,667.116089 62.924198,667.116089 38.274353,667.116089 
	C38.274353,592.604065 38.274353,518.684509 38.274353,443.971069 
	C62.505966,443.971069 86.754051,443.971069 111.502441,444.241058 
	C112.039543,444.726562 112.076347,444.942078 112.112701,445.611694 
	C112.109978,517.521362 112.143303,588.977051 112.016556,660.432434 
	C112.008980,664.703552 112.946503,666.169556 117.502945,666.114868 
	C138.320374,665.865173 159.144180,666.146973 179.961624,665.898132 
	C184.719070,665.841248 186.135529,667.108765 186.116165,671.968323 
	C185.935532,717.272827 186.085449,762.578735 185.899780,807.883240 
	C185.879715,812.780212 187.339767,813.967590 192.069138,813.908447 
	C212.386703,813.654297 232.709259,813.796631 253.029999,813.801880 
	C259.827515,813.803650 259.880463,813.837952 259.885925,820.854675 
	C259.901855,841.175415 259.991791,861.497009 259.808472,881.816101 
	C259.771484,885.913330 260.914673,887.240784 265.119812,887.208557 
	C288.936981,887.025940 312.756317,887.144287 336.574860,887.113953 
	C360.056885,887.084045 383.538818,886.999268 407.483765,887.009277 
	C454.796753,887.104919 501.646759,887.126221 548.496765,887.166382 
	C550.649475,887.168213 552.802124,887.338745 554.959595,887.872314 
	C554.976257,912.542664 554.988159,936.771301 555.000000,961.000000 
	C456.645782,961.000000 358.291534,961.000000 259.468658,961.000000 
z"/>
<path fill="#CDA880" opacity="1.000000" stroke="none" 
	d="
M628.531372,1.000000 
	C629.000000,25.419907 629.000000,49.839813 629.000000,74.741264 
	C653.544067,74.741264 677.933411,74.741264 703.007446,74.741264 
	C703.007446,99.462425 703.007446,123.707687 702.927002,148.627960 
	C702.673950,149.578842 702.446350,149.797348 701.677917,149.954437 
	C680.375488,149.945541 659.558716,149.944977 638.742004,149.927643 
	C637.080383,149.926254 635.418335,149.819870 633.757385,149.743500 
	C630.179016,149.578979 628.719116,148.072922 628.759827,144.134293 
	C628.971497,123.652779 628.859802,103.167908 628.857056,82.684204 
	C628.856140,76.018944 628.851135,76.014114 622.020386,76.014038 
	C527.928589,76.012962 433.836731,76.011391 339.744904,76.025406 
	C337.586639,76.025726 335.428345,76.206116 333.174011,75.947006 
	C333.028656,75.350998 332.979340,75.110497 332.929993,74.869987 
	C332.953339,52.330482 332.966766,29.790958 333.018799,7.251521 
	C333.022949,5.454368 333.293488,3.657829 333.220123,1.430502 
	C431.354218,1.000000 529.708435,1.000000 628.531372,1.000000 
z"/>
<path fill="#AF8F6E" opacity="1.000000" stroke="none" 
	d="
M555.468628,961.000000 
	C554.988159,936.771301 554.976257,912.542664 555.421021,887.767700 
	C602.680237,887.188354 649.482971,887.098267 696.285156,887.213745 
	C700.765259,887.224792 702.287231,886.146118 702.229248,881.426392 
	C701.975525,860.775940 702.218079,840.119812 702.040955,819.467773 
	C702.004089,815.171082 703.228271,813.659790 707.695068,813.704285 
	C728.346558,813.910034 749.003296,813.637268 769.653320,813.907654 
	C774.710083,813.973816 776.129211,812.544128 776.107239,807.457947 
	C775.912842,762.487366 775.993347,717.515564 775.995605,672.544128 
	C775.995911,666.015869 776.003296,666.025696 782.461914,666.005493 
	C804.943420,665.935181 827.424988,665.857361 849.943726,666.120850 
	C850.004822,666.685059 850.028625,666.910889 850.052490,667.136658 
	C850.052490,715.902039 850.052490,764.667419 850.052490,813.962830 
	C825.561401,813.962830 801.515869,813.962830 777.124023,813.962830 
	C777.124023,838.748718 777.124023,863.007874 777.124023,887.793213 
	C752.401428,887.793213 728.022522,887.793213 703.000061,887.793213 
	C703.000061,912.231445 703.000061,936.147034 703.000000,960.531372 
	C653.979126,961.000000 604.958191,961.000000 555.468628,961.000000 
z"/>
<path fill="#AF8F6E" opacity="1.000000" stroke="none" 
	d="
M332.468567,74.923721 
	C332.979340,75.110497 333.028656,75.350998 333.164429,76.387848 
	C333.317444,101.192818 333.383972,125.201431 333.015228,149.284332 
	C330.260681,149.539749 327.941772,149.873245 325.622101,149.878128 
	C305.793945,149.919907 285.962891,150.083588 266.139374,149.778000 
	C261.010468,149.698944 259.747528,151.184357 259.769196,156.208771 
	C259.962830,201.196365 259.805847,246.185471 259.990997,291.173126 
	C260.011169,296.077362 258.544250,297.298187 253.798019,297.242065 
	C232.972961,296.995697 212.142456,297.233978 191.316071,297.051819 
	C187.247528,297.016235 185.829651,298.068115 185.914917,302.321289 
	C186.175354,315.312714 186.023499,328.312744 186.006516,341.309357 
	C185.961472,375.798645 185.903000,410.287964 185.395874,444.820099 
	C182.447815,444.886780 179.953812,444.923553 177.459717,444.932465 
	C155.677521,445.010376 133.895340,445.083221 112.113144,445.157593 
	C112.076347,444.942078 112.039543,444.726562 111.963318,444.185486 
	C111.923904,394.741821 111.923904,345.623688 111.923904,296.133240 
	C136.404083,296.133240 160.339630,296.133240 184.819977,296.133240 
	C184.819977,247.044891 184.819977,198.325089 184.819977,149.059799 
	C209.748657,149.059799 234.137650,149.059799 258.885498,149.059799 
	C258.885498,124.246254 258.885498,99.976189 258.885498,74.977448 
	C283.498352,74.977448 307.752777,74.977448 332.468567,74.923721 
z"/>
<path fill="#CDA880" opacity="1.000000" stroke="none" 
	d="
M702.163635,149.958466 
	C702.446350,149.797348 702.673950,149.578842 702.950500,149.088135 
	C727.500793,148.873306 751.947205,148.873306 776.834351,148.873306 
	C776.834351,197.983932 776.834351,246.675415 776.834351,295.834534 
	C801.314270,295.834534 825.359741,295.834534 850.006531,295.834534 
	C850.006531,345.182861 850.006531,394.064301 850.004639,443.717407 
	C849.986755,444.697021 849.970764,444.904968 849.493164,445.057068 
	C824.707092,444.968903 800.382690,444.936584 776.037720,444.942444 
	C776.017151,444.980621 776.094543,444.941589 776.076050,444.478333 
	C776.038330,397.045502 775.950500,350.075714 776.104248,303.106689 
	C776.119995,298.305847 774.799561,296.944733 769.989868,296.985199 
	C747.341797,297.175751 724.690491,296.982269 702.024536,296.958588 
	C702.008667,296.991394 702.074768,296.960724 702.078979,296.495667 
	C702.110046,247.339920 702.136841,198.649185 702.163635,149.958466 
z"/>
<path fill="#CDA880" opacity="1.000000" stroke="none" 
	d="
M849.954834,445.112946 
	C849.970764,444.904968 849.986755,444.697021 850.027222,444.177124 
	C874.506714,443.865204 898.961731,443.865204 923.978271,443.865204 
	C923.978271,493.229340 923.978271,542.137634 923.457031,591.524658 
	C898.650330,592.014587 874.364868,592.025818 850.027588,591.567322 
	C849.884583,567.055786 849.793335,543.013916 849.776855,518.510376 
	C849.885986,493.736786 849.920410,469.424866 849.954834,445.112946 
z"/>
<path fill="#AF8F6E" opacity="1.000000" stroke="none" 
	d="
M850.079346,592.036987 
	C874.364868,592.025818 898.650330,592.014587 923.394714,591.987915 
	C923.853577,616.759460 923.853577,641.546387 923.853577,667.025208 
	C899.460938,667.025208 875.218994,667.025208 850.514771,667.080933 
	C850.028625,666.910889 850.004822,666.685059 849.934692,665.671997 
	C849.952026,640.602173 850.015686,616.319580 850.079346,592.036987 
z"/>
<path fill="#FFE7B6" opacity="1.000000" stroke="none" 
	d="
M850.027588,591.567322 
	C850.015686,616.319580 849.952026,640.602173 849.897461,665.333557 
	C827.424988,665.857361 804.943420,665.935181 782.461914,666.005493 
	C776.003296,666.025696 775.995911,666.015869 775.995605,672.544128 
	C775.993347,717.515564 775.912842,762.487366 776.107239,807.457947 
	C776.129211,812.544128 774.710083,813.973816 769.653320,813.907654 
	C749.003296,813.637268 728.346558,813.910034 707.695068,813.704285 
	C703.228271,813.659790 702.004089,815.171082 702.040955,819.467773 
	C702.218079,840.119812 701.975525,860.775940 702.229248,881.426392 
	C702.287231,886.146118 700.765259,887.224792 696.285156,887.213745 
	C649.482971,887.098267 602.680237,887.188354 555.416260,887.326111 
	C552.802124,887.338745 550.649475,887.168213 548.496765,887.166382 
	C501.646759,887.126221 454.796753,887.104919 407.483337,886.545898 
	C407.017944,863.690796 406.935242,841.369263 407.090424,819.049377 
	C407.117523,815.149658 406.008453,813.858154 402.007690,813.897156 
	C383.019958,814.082153 364.029388,813.979431 345.039856,813.979309 
	C333.034027,813.979187 333.027557,813.979370 333.023621,801.597961 
	C333.017731,783.108154 332.875824,764.616333 333.123779,746.129822 
	C333.186615,741.445190 332.060364,739.808777 327.086426,739.877319 
	C306.934662,740.155090 286.776886,739.994873 266.621307,739.991455 
	C259.996552,739.990356 259.986664,739.983765 259.986237,733.559204 
	C259.983185,688.583984 259.987488,643.608704 259.981140,598.633484 
	C259.980194,592.056763 259.938599,592.022095 253.217972,592.019714 
	C232.562683,592.012268 211.906418,591.912781 191.252884,592.102844 
	C187.053467,592.141479 185.813507,590.800842 185.920929,586.691101 
	C186.177673,576.869934 186.013885,567.037476 186.001648,557.209534 
	C185.954971,519.732117 185.901077,482.254669 185.849884,444.777252 
	C185.903000,410.287964 185.961472,375.798645 186.006516,341.309357 
	C186.023499,328.312744 186.175354,315.312714 185.914917,302.321289 
	C185.829651,298.068115 187.247528,297.016235 191.316071,297.051819 
	C212.142456,297.233978 232.972961,296.995697 253.798019,297.242065 
	C258.544250,297.298187 260.011169,296.077362 259.990997,291.173126 
	C259.805847,246.185471 259.962830,201.196365 259.769196,156.208771 
	C259.747528,151.184357 261.010468,149.698944 266.139374,149.778000 
	C285.962891,150.083588 305.793945,149.919907 325.622101,149.878128 
	C327.941772,149.873245 330.260681,149.539749 333.360016,149.429871 
	C336.115387,149.667160 338.090576,149.976883 340.065979,149.978088 
	C385.053009,150.005554 430.040344,150.075577 475.026611,149.890594 
	C479.945831,149.870377 481.163666,151.370865 481.104004,156.106018 
	C480.856354,175.763885 480.982697,195.426727 481.007843,215.087692 
	C481.019165,223.917435 480.153168,222.988678 489.163055,222.992966 
	C533.150391,223.013885 577.137695,223.000275 621.125061,223.004547 
	C628.496033,223.005264 628.994080,223.517807 628.995850,231.036697 
	C629.000671,251.197556 629.128723,271.359924 628.896667,291.518127 
	C628.844910,296.014191 630.271362,297.132751 634.595459,297.092438 
	C657.087036,296.882782 679.581360,296.974152 702.074768,296.960724 
	C702.074768,296.960724 702.008667,296.991394 702.012817,297.434509 
	C702.011414,344.836639 702.061584,391.795868 701.915039,438.754456 
	C701.900208,443.501465 703.289734,445.141754 708.155518,445.092560 
	C730.800110,444.863586 753.447876,444.960968 776.094543,444.941589 
	C776.094543,444.941589 776.017151,444.980621 776.019531,445.420105 
	C776.014709,468.349274 776.096191,490.839600 775.924011,513.328003 
	C775.890381,517.724304 777.412598,519.102661 781.733887,519.071106 
	C804.388977,518.905334 827.045898,518.980591 849.702148,518.972046 
	C849.793335,543.013916 849.884583,567.055786 850.027588,591.567322 
M626.348572,592.346436 
	C602.617432,592.346436 578.886292,592.346436 554.995911,592.346436 
	C554.898376,594.303589 554.776672,595.615601 554.775940,596.927795 
	C554.764160,618.557800 554.758057,640.187866 554.788452,661.817871 
	C554.790466,663.287292 555.092041,664.756409 554.297668,666.060242 
	C505.418030,666.060242 456.538361,666.060242 407.661743,666.060242 
	C407.661743,690.941345 407.661743,715.293152 407.661743,739.582764 
	C456.802856,739.582764 505.522430,739.582764 554.767395,739.582764 
	C554.767395,734.204773 554.745361,729.084717 554.771301,723.964905 
	C554.869080,704.665344 554.982361,685.365845 555.984131,666.015503 
	C580.045288,666.015503 604.106445,666.015503 628.581055,666.015503 
	C628.581055,659.328979 628.609253,653.362122 628.575684,647.395630 
	C628.475586,629.599060 628.351257,611.802673 628.348572,593.266418 
	C627.936829,593.069946 627.525085,592.873474 626.348572,592.346436 
M333.429169,492.499725 
	C333.429169,501.086578 333.429169,509.673401 333.429169,518.221069 
	C358.470490,518.221069 382.678375,518.221069 406.852783,518.221069 
	C406.852783,493.591278 406.852783,469.366425 406.852783,445.199341 
	C382.252136,445.199341 358.041382,445.199341 333.429230,445.199341 
	C333.429230,460.892639 333.429230,476.196167 333.429169,492.499725 
M391.444489,592.284607 
	C372.206635,592.284607 352.968781,592.284607 333.688171,592.284607 
	C333.688171,617.259277 333.688171,641.359985 333.688171,665.641357 
	C358.317932,665.641357 382.686554,665.641357 407.000000,665.641357 
	C407.000000,641.148682 407.000000,617.028748 407.000000,592.284668 
	C401.987701,592.284668 397.205750,592.284668 391.444489,592.284607 
M600.481689,518.623901 
	C609.720703,518.623901 618.959717,518.623901 628.159424,518.623901 
	C628.159424,493.543976 628.159424,469.336731 628.159424,445.208130 
	C603.511658,445.208130 579.287720,445.208130 555.151489,445.208130 
	C555.151489,469.845795 555.151489,494.079681 555.151489,518.623901 
	C570.184753,518.623901 584.835876,518.623901 600.481689,518.623901 
z"/>
<path fill="#E6D0A5" opacity="1.000000" stroke="none" 
	d="
M185.395874,444.820099 
	C185.901077,482.254669 185.954971,519.732117 186.001648,557.209534 
	C186.013885,567.037476 186.177673,576.869934 185.920929,586.691101 
	C185.813507,590.800842 187.053467,592.141479 191.252884,592.102844 
	C211.906418,591.912781 232.562683,592.012268 253.217972,592.019714 
	C259.938599,592.022095 259.980194,592.056763 259.981140,598.633484 
	C259.987488,643.608704 259.983185,688.583984 259.986237,733.559204 
	C259.986664,739.983765 259.996552,739.990356 266.621307,739.991455 
	C286.776886,739.994873 306.934662,740.155090 327.086426,739.877319 
	C332.060364,739.808777 333.186615,741.445190 333.123779,746.129822 
	C332.875824,764.616333 333.017731,783.108154 333.023621,801.597961 
	C333.027557,813.979370 333.034027,813.979187 345.039856,813.979309 
	C364.029388,813.979431 383.019958,814.082153 402.007690,813.897156 
	C406.008453,813.858154 407.117523,815.149658 407.090424,819.049377 
	C406.935242,841.369263 407.017944,863.690796 407.020355,886.475220 
	C383.538818,886.999268 360.056885,887.084045 336.574860,887.113953 
	C312.756317,887.144287 288.936981,887.025940 265.119812,887.208557 
	C260.914673,887.240784 259.771484,885.913330 259.808472,881.816101 
	C259.991791,861.497009 259.901855,841.175415 259.885925,820.854675 
	C259.880463,813.837952 259.827515,813.803650 253.029999,813.801880 
	C232.709259,813.796631 212.386703,813.654297 192.069138,813.908447 
	C187.339767,813.967590 185.879715,812.780212 185.899780,807.883240 
	C186.085449,762.578735 185.935532,717.272827 186.116165,671.968323 
	C186.135529,667.108765 184.719070,665.841248 179.961624,665.898132 
	C159.144180,666.146973 138.320374,665.865173 117.502945,666.114868 
	C112.946503,666.169556 112.008980,664.703552 112.016556,660.432434 
	C112.143303,588.977051 112.109978,517.521362 112.112701,445.611694 
	C133.895340,445.083221 155.677521,445.010376 177.459717,444.932465 
	C179.953812,444.923553 182.447815,444.886780 185.395874,444.820099 
z"/>
<path fill="#FFEAC4" opacity="1.000000" stroke="none" 
	d="
M702.078979,296.495667 
	C679.581360,296.974152 657.087036,296.882782 634.595459,297.092438 
	C630.271362,297.132751 628.844910,296.014191 628.896667,291.518127 
	C629.128723,271.359924 629.000671,251.197556 628.995850,231.036697 
	C628.994080,223.517807 628.496033,223.005264 621.125061,223.004547 
	C577.137695,223.000275 533.150391,223.013885 489.163055,222.992966 
	C480.153168,222.988678 481.019165,223.917435 481.007843,215.087692 
	C480.982697,195.426727 480.856354,175.763885 481.104004,156.106018 
	C481.163666,151.370865 479.945831,149.870377 475.026611,149.890594 
	C430.040344,150.075577 385.053009,150.005554 340.065979,149.978088 
	C338.090576,149.976883 336.115387,149.667160 333.795288,149.355591 
	C333.383972,125.201431 333.317444,101.192818 333.260498,76.743362 
	C335.428345,76.206116 337.586639,76.025726 339.744904,76.025406 
	C433.836731,76.011391 527.928589,76.012962 622.020386,76.014038 
	C628.851135,76.014114 628.856140,76.018944 628.857056,82.684204 
	C628.859802,103.167908 628.971497,123.652779 628.759827,144.134293 
	C628.719116,148.072922 630.179016,149.578979 633.757385,149.743500 
	C635.418335,149.819870 637.080383,149.926254 638.742004,149.927643 
	C659.558716,149.944977 680.375488,149.945541 701.677917,149.954437 
	C702.136841,198.649185 702.110046,247.339920 702.078979,296.495667 
z"/>
<path fill="#FFEAC4" opacity="1.000000" stroke="none" 
	d="
M776.076050,444.478333 
	C753.447876,444.960968 730.800110,444.863586 708.155518,445.092560 
	C703.289734,445.141754 701.900208,443.501465 701.915039,438.754456 
	C702.061584,391.795868 702.011414,344.836639 702.028625,297.401672 
	C724.690491,296.982269 747.341797,297.175751 769.989868,296.985199 
	C774.799561,296.944733 776.119995,298.305847 776.104248,303.106689 
	C775.950500,350.075714 776.038330,397.045502 776.076050,444.478333 
z"/>
<path fill="#FFEAC4" opacity="1.000000" stroke="none" 
	d="
M849.776855,518.510376 
	C827.045898,518.980591 804.388977,518.905334 781.733887,519.071106 
	C777.412598,519.102661 775.890381,517.724304 775.924011,513.328003 
	C776.096191,490.839600 776.014709,468.349274 776.040039,445.381927 
	C800.382690,444.936584 824.707092,444.968903 849.493164,445.057068 
	C849.920410,469.424866 849.885986,493.736786 849.776855,518.510376 
z"/>
<path fill="#000000" opacity="1.000000" stroke="none" 
	d="
M555.089844,666.066284 
	C554.982361,685.365845 554.869080,704.665344 554.771301,723.964905 
	C554.745361,729.084717 554.767395,734.204773 554.767395,739.582764 
	C505.522430,739.582764 456.802856,739.582764 407.661743,739.582764 
	C407.661743,715.293152 407.661743,690.941345 407.661743,666.060242 
	C456.538361,666.060242 505.418030,666.060242 554.730347,666.102539 
	C555.163025,666.144836 555.089844,666.066284 555.089844,666.066284 
z"/>
<path fill="#000000" opacity="1.000000" stroke="none" 
	d="
M628.236328,594.006165 
	C628.351257,611.802673 628.475586,629.599060 628.575684,647.395630 
	C628.609253,653.362122 628.581055,659.328979 628.581055,666.015503 
	C604.106445,666.015503 580.045288,666.015503 555.536987,666.040894 
	C555.089844,666.066284 555.163025,666.144836 555.208618,666.185242 
	C555.092041,664.756409 554.790466,663.287292 554.788452,661.817871 
	C554.758057,640.187866 554.764160,618.557800 554.775940,596.927795 
	C554.776672,595.615601 554.898376,594.303589 554.995911,592.346436 
	C578.886292,592.346436 602.617432,592.346436 626.830566,592.798340 
	C627.620544,593.502197 627.928467,593.754150 628.236328,594.006165 
z"/>
<path fill="#000000" opacity="1.000000" stroke="none" 
	d="
M333.429199,491.999695 
	C333.429230,476.196167 333.429230,460.892639 333.429230,445.199341 
	C358.041382,445.199341 382.252136,445.199341 406.852783,445.199341 
	C406.852783,469.366425 406.852783,493.591278 406.852783,518.221069 
	C382.678375,518.221069 358.470490,518.221069 333.429169,518.221069 
	C333.429169,509.673401 333.429169,501.086578 333.429199,491.999695 
z"/>
<path fill="#000000" opacity="1.000000" stroke="none" 
	d="
M391.934143,592.284668 
	C397.205750,592.284668 401.987701,592.284668 407.000000,592.284668 
	C407.000000,617.028748 407.000000,641.148682 407.000000,665.641357 
	C382.686554,665.641357 358.317932,665.641357 333.688171,665.641357 
	C333.688171,641.359985 333.688171,617.259277 333.688171,592.284607 
	C352.968781,592.284607 372.206635,592.284607 391.934143,592.284668 
z"/>
<path fill="#000000" opacity="1.000000" stroke="none" 
	d="
M599.984375,518.623901 
	C584.835876,518.623901 570.184753,518.623901 555.151489,518.623901 
	C555.151489,494.079681 555.151489,469.845795 555.151489,445.208130 
	C579.287720,445.208130 603.511658,445.208130 628.159424,445.208130 
	C628.159424,469.336731 628.159424,493.543976 628.159424,518.623901 
	C618.959717,518.623901 609.720703,518.623901 599.984375,518.623901 
z"/>
<path fill="#0C0B09" opacity="1.000000" stroke="none" 
	d="
M628.292480,593.636292 
	C627.928467,593.754150 627.620544,593.502197 627.212952,592.963623 
	C627.525085,592.873474 627.936829,593.069946 628.292480,593.636292 
z"/>
</svg>